<svg xmlns="http://www.w3.org/2000/svg" width="600" height="400" viewBox="0 0 600 400">
  <defs><linearGradient id="bg" x1="0%" y1="0%" x2="100%" y2="100%"><stop offset="0%" style="stop-color:#2e0a1e"/><stop offset="100%" style="stop-color:#c02660"/></linearGradient></defs>
  <rect width="600" height="400" fill="url(#bg)"/>
  <g opacity="0.12" fill="none" stroke="white" stroke-width="1.5"><rect x="100" y="60" width="130" height="160" rx="8"/><circle cx="160" cy="110" r="25"/></g>
  <g opacity="0.15" fill="white"><rect x="250" y="70" width="120" height="8" rx="3"/><rect x="250" y="90" width="200" height="8" rx="3"/></g>
  <g opacity="0.1" fill="white">
    <rect x="250" y="120" width="180" height="6" rx="2"/><rect x="250" y="138" width="160" height="6" rx="2"/>
    <rect x="250" y="156" width="140" height="6" rx="2"/>
  </g>
  <g opacity="0.12" fill="white">
    <circle cx="270" cy="195" r="8" fill="#f9a8d4"/><circle cx="295" cy="195" r="8" fill="#c084fc"/><circle cx="320" cy="195" r="8" fill="#93c5fd"/><circle cx="345" cy="195" r="8" fill="#86efac"/><circle cx="370" cy="195" r="8" fill="#fde68a"/>
  </g>
  <g opacity="0.08" fill="white"><rect x="250" y="230" width="280" height="6" rx="2"/><rect x="250" y="248" width="220" height="6" rx="2"/><rect x="250" y="266" width="300" height="6" rx="2"/></g>
</svg>
